<svg width="256" height="256" viewBox="0 0 256 256" fill="none" xmlns="http://www.w3.org/2000/svg">
<g clip-path="url(#clip0_3_2)">
<rect width="256" height="256" rx="40" fill="#1666CD"/>
<path fill-rule="evenodd" clip-rule="evenodd" d="M127.428 185.409C127.528 188.322 125.154 190.733 122.24 190.644L101.206 189.999C100.174 189.969 99.3926 189.051 99.5124 188.025C100.079 183.179 101.209 170.246 98.3487 162.076C95.7067 154.53 92.4646 150.806 86.8663 145.077C83.8209 141.961 77.1488 138.152 72.4704 135.684C69.8062 134.279 68.8445 130.883 70.4694 128.347L103.762 76.3824C105.227 74.0965 108.242 73.3961 110.547 74.8293C115.076 77.6446 122.367 82.2543 127.525 85.8979C136.71 92.3858 148.457 105.524 148.457 105.524C148.457 105.524 160.057 120.618 164.79 135.74C167.046 142.95 169.046 153.279 170.062 158.954C170.49 161.339 172.538 163.107 174.961 163.147L179.189 163.217C182.127 163.265 184.463 160.785 184.144 157.863C183.608 152.959 182.635 145.742 181.143 140.529C176.736 125.136 173.41 116.379 164.392 103.173C155.508 90.1619 144.22 80.2913 136.138 74.2442C131.049 70.4362 123.577 66.098 118.741 63.4075C116.184 61.9846 115.314 58.6943 116.884 56.2249L127.09 40.1797C128.533 37.9108 131.506 37.19 133.808 38.5802C139.157 41.8112 148.543 47.6203 154.879 52.3272C164.712 59.6307 169.652 64.7027 177.636 73.914C185.421 82.8959 194.924 98.8248 194.924 98.8248C194.924 98.8248 202.36 112.652 205.617 122.144C211.441 139.119 213.335 149.442 213.694 167.504C213.81 173.39 213.701 181.73 213.607 186.979C213.558 189.718 211.303 191.887 208.564 191.852L147.285 191.067C144.521 191.032 142.31 188.761 142.349 185.997L142.552 171.702C142.552 171.702 141.273 152.734 136.224 141.604C131.586 131.38 121.48 119.458 116.924 114.947C115.64 113.675 114.075 114.024 113.074 115.529L107.866 123.36C106.352 125.636 106.938 128.721 109.038 130.47C112.359 133.236 116.983 137.614 119.514 142.335C122.399 147.717 123.817 151.096 125.407 156.978C127.341 164.133 127.314 168.068 127.245 175.462C127.218 178.394 127.32 182.28 127.428 185.409Z" fill="white"/>
<path d="M42.1884 187.755C38.5348 187.59 36.3039 183.662 38.0179 180.412L55.7913 146.705C57.0483 144.321 59.9441 143.371 62.2667 144.713C67.6109 147.802 76.5957 153.727 80.5615 160.598C84.5574 167.521 85.2328 178.487 85.2562 184.792C85.2663 187.518 82.9677 189.592 80.2576 189.469L42.1884 187.755Z" fill="white"/>
</g>
<defs>
<clipPath id="clip0_3_2">
<rect width="256" height="256" fill="white"/>
</clipPath>
</defs>
</svg>
