<svg width="256" height="256" viewBox="0 0 256 256" fill="none" xmlns="http://www.w3.org/2000/svg">
<g clip-path="url(#clip0_1_4)">
<path fill-rule="evenodd" clip-rule="evenodd" d="M131.963 208.877C131.931 211.6 129.749 213.818 127.027 213.871L99.0913 214.408C97.8583 214.435 96.9104 213.314 97.1216 212.099C98.1238 206.332 100.254 191.323 97.2036 182.03C94.3678 173.391 90.5574 169.244 83.936 162.9C80.2595 159.378 71.9264 155.24 66.2415 152.651C63.3043 151.314 62.2397 147.609 64.1107 144.979L110.017 80.4595C111.477 78.4069 114.233 77.7609 116.441 78.9726C121.75 81.885 131.389 87.2627 138.041 91.49C149.078 98.5046 162.905 113.119 162.905 113.119C162.905 113.119 176.433 130.021 181.417 147.366C183.822 155.736 185.709 167.848 186.623 174.348C186.984 176.913 189.212 178.811 191.801 178.727L199.514 178.475C202.265 178.386 204.418 176.092 204.254 173.345C203.919 167.707 203.144 158.453 201.472 151.972C196.908 134.292 193.294 124.282 182.866 109.427C172.592 94.7903 159.141 83.9582 149.449 77.3915C143.232 73.1788 133.972 68.4723 128.132 65.6394C125.309 64.2701 124.351 60.6842 126.162 58.1222L141.179 36.8789C142.617 34.8442 145.329 34.179 147.53 35.3465C153.714 38.6263 165.994 45.2979 174.068 50.7249C185.862 58.6516 191.704 64.269 201.085 74.5299C210.232 84.5352 221.102 102.536 221.102 102.536C221.102 102.536 229.526 118.21 233.01 129.08C239.242 148.52 240.982 160.44 240.349 181.473C240.128 188.838 239.413 199.523 238.987 205.487C238.806 208.024 236.739 210.009 234.197 210.101L155.654 212.929C152.692 213.036 150.289 210.558 150.485 207.602L151.61 190.613C151.61 190.613 151.152 168.578 145.536 155.906C140.184 143.829 127.622 129.974 122.544 125.46C121.325 124.377 119.884 124.737 118.918 126.05L110.932 136.903C109.199 139.259 109.831 142.616 112.163 144.381C116.144 147.394 121.788 152.302 124.708 157.755C127.976 163.857 129.537 167.711 131.164 174.472C133.142 182.698 132.874 187.286 132.347 195.909C132.111 199.778 132.008 205.06 131.963 208.877Z" fill="#1666CD"/>
<path d="M24.9452 215.32C21.0473 215.343 18.619 211.101 20.6165 207.76L46.027 165.247C47.2994 163.118 49.9353 162.253 52.1642 163.347C58.3975 166.408 70.3525 173.094 75.1676 181.369C80.0185 189.705 79.916 203.606 79.4903 210.642C79.3387 213.147 77.2395 215.018 74.7269 215.032L24.9452 215.32Z" fill="#1666CD"/>
</g>
<defs>
<clipPath id="clip0_1_4">
<rect width="256" height="256" fill="white"/>
</clipPath>
</defs>
</svg>
